<svg>
<polyline points="30,30 30,1030 1030,1030 1030,30 30,30" fill = "white" stroke = "#000000" stroke-width = "5" /> 
<line x1="30.000000" y1 = "30.000000" x2="30.000000" y2="1030.000000" stroke = "#7AA20D" stroke-width = "3.000000" /> 
<line x1="30.000000" y1 = "30.000000" x2="30.000000" y2="1030.000000" stroke = "#7AA20D" stroke-width = "3.000000" /> 
<line x1="30.000000" y1 = "30.000000" x2="30.000000" y2="1030.000000" stroke = "#7AA20D" stroke-width = "3.000000" /> 
<line x1="30.000000" y1 = "30.000000" x2="30.000000" y2="1030.000000" stroke = "#7AA20D" stroke-width = "3.000000" /> 
<line x1="67.952876" y1 = "30.000000" x2="67.952876" y2="1030.000000" stroke = "#7AA20D" stroke-width = "3.000000" /> 
<line x1="101.431413" y1 = "30.000000" x2="101.431413" y2="1030.000000" stroke = "#7AA20D" stroke-width = "3.000000" /> 
<line x1="114.452807" y1 = "30.000000" x2="114.452807" y2="1030.000000" stroke = "#7AA20D" stroke-width = "3.000000" /> 
<line x1="138.130411" y1 = "30.000000" x2="138.130411" y2="1030.000000" stroke = "#7AA20D" stroke-width = "3.000000" /> 
<line x1="159.784062" y1 = "30.000000" x2="159.784062" y2="1030.000000" stroke = "#7AA20D" stroke-width = "3.000000" /> 
<line x1="196.145038" y1 = "30.000000" x2="196.145038" y2="1030.000000" stroke = "#7AA20D" stroke-width = "3.000000" /> 
<line x1="219.344854" y1 = "30.000000" x2="219.344854" y2="1030.000000" stroke = "#7AA20D" stroke-width = "3.000000" /> 
<line x1="231.627414" y1 = "30.000000" x2="231.627414" y2="1030.000000" stroke = "#7AA20D" stroke-width = "3.000000" /> 
<line x1="244.430223" y1 = "30.000000" x2="244.430223" y2="1030.000000" stroke = "#7AA20D" stroke-width = "3.000000" /> 
<line x1="246.144004" y1 = "30.000000" x2="246.144004" y2="1030.000000" stroke = "#7AA20D" stroke-width = "3.000000" /> 
<line x1="261.274344" y1 = "30.000000" x2="261.274344" y2="1030.000000" stroke = "#7AA20D" stroke-width = "3.000000" /> 
<line x1="269.161781" y1 = "30.000000" x2="269.161781" y2="1030.000000" stroke = "#7AA20D" stroke-width = "3.000000" /> 
<line x1="271.191637" y1 = "30.000000" x2="271.191637" y2="1030.000000" stroke = "#7AA20D" stroke-width = "3.000000" /> 
<line x1="276.948965" y1 = "30.000000" x2="276.948965" y2="1030.000000" stroke = "#7AA20D" stroke-width = "3.000000" /> 
<line x1="278.016574" y1 = "30.000000" x2="278.016574" y2="1030.000000" stroke = "#7AA20D" stroke-width = "3.000000" /> 
<line x1="279.000837" y1 = "30.000000" x2="279.000837" y2="1030.000000" stroke = "#7AA20D" stroke-width = "3.000000" /> 
<line x1="280.279333" y1 = "30.000000" x2="280.279333" y2="1030.000000" stroke = "#7AA20D" stroke-width = "3.000000" /> 
<line x1="283.336556" y1 = "30.000000" x2="283.336556" y2="1030.000000" stroke = "#7AA20D" stroke-width = "3.000000" /> 
<line x1="287.174703" y1 = "30.000000" x2="287.174703" y2="1030.000000" stroke = "#7AA20D" stroke-width = "3.000000" /> 
<line x1="290.940968" y1 = "30.000000" x2="290.940968" y2="1030.000000" stroke = "#7AA20D" stroke-width = "3.000000" /> 
<line x1="297.591657" y1 = "30.000000" x2="297.591657" y2="1030.000000" stroke = "#7AA20D" stroke-width = "3.000000" /> 
<line x1="308.411491" y1 = "30.000000" x2="308.411491" y2="1030.000000" stroke = "#7AA20D" stroke-width = "3.000000" /> 
<line x1="314.874432" y1 = "30.000000" x2="314.874432" y2="1030.000000" stroke = "#7AA20D" stroke-width = "3.000000" /> 
<line x1="321.664367" y1 = "30.000000" x2="321.664367" y2="1030.000000" stroke = "#7AA20D" stroke-width = "3.000000" /> 
<line x1="331.830285" y1 = "30.000000" x2="331.830285" y2="1030.000000" stroke = "#7AA20D" stroke-width = "3.000000" /> 
<line x1="346.618003" y1 = "30.000000" x2="346.618003" y2="1030.000000" stroke = "#7AA20D" stroke-width = "3.000000" /> 
<line x1="353.358663" y1 = "30.000000" x2="353.358663" y2="1030.000000" stroke = "#7AA20D" stroke-width = "3.000000" /> 
<line x1="368.767371" y1 = "30.000000" x2="368.767371" y2="1030.000000" stroke = "#7AA20D" stroke-width = "3.000000" /> 
<line x1="380.234943" y1 = "30.000000" x2="380.234943" y2="1030.000000" stroke = "#7AA20D" stroke-width = "3.000000" /> 
<line x1="396.507867" y1 = "30.000000" x2="396.507867" y2="1030.000000" stroke = "#7AA20D" stroke-width = "3.000000" /> 
<line x1="406.386424" y1 = "30.000000" x2="406.386424" y2="1030.000000" stroke = "#7AA20D" stroke-width = "3.000000" /> 
<line x1="412.071133" y1 = "30.000000" x2="412.071133" y2="1030.000000" stroke = "#7AA20D" stroke-width = "3.000000" /> 
<line x1="415.127304" y1 = "30.000000" x2="415.127304" y2="1030.000000" stroke = "#7AA20D" stroke-width = "3.000000" /> 
<line x1="428.729007" y1 = "30.000000" x2="428.729007" y2="1030.000000" stroke = "#7AA20D" stroke-width = "3.000000" /> 
<line x1="440.042908" y1 = "30.000000" x2="440.042908" y2="1030.000000" stroke = "#7AA20D" stroke-width = "3.000000" /> 
<line x1="457.234845" y1 = "30.000000" x2="457.234845" y2="1030.000000" stroke = "#7AA20D" stroke-width = "3.000000" /> 
<line x1="476.371527" y1 = "30.000000" x2="476.371527" y2="1030.000000" stroke = "#7AA20D" stroke-width = "3.000000" /> 
<line x1="491.447007" y1 = "30.000000" x2="491.447007" y2="1030.000000" stroke = "#7AA20D" stroke-width = "3.000000" /> 
<line x1="504.768157" y1 = "30.000000" x2="504.768157" y2="1030.000000" stroke = "#7AA20D" stroke-width = "3.000000" /> 
<line x1="515.457724" y1 = "30.000000" x2="515.457724" y2="1030.000000" stroke = "#7AA20D" stroke-width = "3.000000" /> 
<line x1="518.022158" y1 = "30.000000" x2="518.022158" y2="1030.000000" stroke = "#7AA20D" stroke-width = "3.000000" /> 
<line x1="533.420942" y1 = "30.000000" x2="533.420942" y2="1030.000000" stroke = "#7AA20D" stroke-width = "3.000000" /> 
<line x1="549.502872" y1 = "30.000000" x2="549.502872" y2="1030.000000" stroke = "#7AA20D" stroke-width = "3.000000" /> 
<line x1="564.164340" y1 = "30.000000" x2="564.164340" y2="1030.000000" stroke = "#7AA20D" stroke-width = "3.000000" /> 
<line x1="578.834572" y1 = "30.000000" x2="578.834572" y2="1030.000000" stroke = "#7AA20D" stroke-width = "3.000000" /> 
<line x1="594.056528" y1 = "30.000000" x2="594.056528" y2="1030.000000" stroke = "#7AA20D" stroke-width = "3.000000" /> 
<line x1="601.030636" y1 = "30.000000" x2="601.030636" y2="1030.000000" stroke = "#7AA20D" stroke-width = "3.000000" /> 
<line x1="616.712627" y1 = "30.000000" x2="616.712627" y2="1030.000000" stroke = "#7AA20D" stroke-width = "3.000000" /> 
<line x1="630.100682" y1 = "30.000000" x2="630.100682" y2="1030.000000" stroke = "#7AA20D" stroke-width = "3.000000" /> 
<line x1="644.002902" y1 = "30.000000" x2="644.002902" y2="1030.000000" stroke = "#7AA20D" stroke-width = "3.000000" /> 
<line x1="659.678153" y1 = "30.000000" x2="659.678153" y2="1030.000000" stroke = "#7AA20D" stroke-width = "3.000000" /> 
<line x1="664.464371" y1 = "30.000000" x2="664.464371" y2="1030.000000" stroke = "#7AA20D" stroke-width = "3.000000" /> 
<line x1="679.769090" y1 = "30.000000" x2="679.769090" y2="1030.000000" stroke = "#7AA20D" stroke-width = "3.000000" /> 
<line x1="698.072590" y1 = "30.000000" x2="698.072590" y2="1030.000000" stroke = "#7AA20D" stroke-width = "3.000000" /> 
<line x1="717.218888" y1 = "30.000000" x2="717.218888" y2="1030.000000" stroke = "#7AA20D" stroke-width = "3.000000" /> 
<line x1="730.538944" y1 = "30.000000" x2="730.538944" y2="1030.000000" stroke = "#7AA20D" stroke-width = "3.000000" /> 
<line x1="749.744471" y1 = "30.000000" x2="749.744471" y2="1030.000000" stroke = "#7AA20D" stroke-width = "3.000000" /> 
<line x1="763.525617" y1 = "30.000000" x2="763.525617" y2="1030.000000" stroke = "#7AA20D" stroke-width = "3.000000" /> 
<line x1="774.281845" y1 = "30.000000" x2="774.281845" y2="1030.000000" stroke = "#7AA20D" stroke-width = "3.000000" /> 
<line x1="782.272549" y1 = "30.000000" x2="782.272549" y2="1030.000000" stroke = "#7AA20D" stroke-width = "3.000000" /> 
<line x1="791.321080" y1 = "30.000000" x2="791.321080" y2="1030.000000" stroke = "#7AA20D" stroke-width = "3.000000" /> 
<line x1="801.569500" y1 = "30.000000" x2="801.569500" y2="1030.000000" stroke = "#7AA20D" stroke-width = "3.000000" /> 
<line x1="813.519659" y1 = "30.000000" x2="813.519659" y2="1030.000000" stroke = "#7AA20D" stroke-width = "3.000000" /> 
<line x1="819.685735" y1 = "30.000000" x2="819.685735" y2="1030.000000" stroke = "#7AA20D" stroke-width = "3.000000" /> 
<line x1="834.024748" y1 = "30.000000" x2="834.024748" y2="1030.000000" stroke = "#7AA20D" stroke-width = "3.000000" /> 
<line x1="860.046272" y1 = "30.000000" x2="860.046272" y2="1030.000000" stroke = "#7AA20D" stroke-width = "3.000000" /> 
<line x1="867.396637" y1 = "30.000000" x2="867.396637" y2="1030.000000" stroke = "#7AA20D" stroke-width = "3.000000" /> 
<line x1="886.641775" y1 = "30.000000" x2="886.641775" y2="1030.000000" stroke = "#7AA20D" stroke-width = "3.000000" /> 
<line x1="896.884808" y1 = "30.000000" x2="896.884808" y2="1030.000000" stroke = "#7AA20D" stroke-width = "3.000000" /> 
<line x1="925.919063" y1 = "30.000000" x2="925.919063" y2="1030.000000" stroke = "#7AA20D" stroke-width = "3.000000" /> 
<line x1="961.835488" y1 = "30.000000" x2="961.835488" y2="1030.000000" stroke = "#7AA20D" stroke-width = "3.000000" /> 
<line x1="1030.000000" y1 = "30.000000" x2="1030.000000" y2="1030.000000" stroke = "#7AA20D" stroke-width = "3.000000" /> 
<line x1="1030.000000" y1 = "30.000000" x2="1030.000000" y2="1030.000000" stroke = "#7AA20D" stroke-width = "3.000000" /> 
<line x1="1030.000000" y1 = "30.000000" x2="1030.000000" y2="1030.000000" stroke = "#7AA20D" stroke-width = "3.000000" /> 
<line x1="1030.000000" y1 = "30.000000" x2="1030.000000" y2="1030.000000" stroke = "#7AA20D" stroke-width = "3.000000" /> 
<line x1="30.000000" y1 = "30.000000" x2="1030.000000" y2="30.000000" stroke = "#7AA20D" stroke-width = "3.000000" /> 
<line x1="30.000000" y1 = "30.000000" x2="1030.000000" y2="30.000000" stroke = "#7AA20D" stroke-width = "3.000000" /> 
<line x1="30.000000" y1 = "30.000000" x2="1030.000000" y2="30.000000" stroke = "#7AA20D" stroke-width = "3.000000" /> 
<line x1="30.000000" y1 = "30.000000" x2="1030.000000" y2="30.000000" stroke = "#7AA20D" stroke-width = "3.000000" /> 
<line x1="30.000000" y1 = "79.085362" x2="1030.000000" y2="79.085362" stroke = "#7AA20D" stroke-width = "3.000000" /> 
<line x1="30.000000" y1 = "94.412477" x2="1030.000000" y2="94.412477" stroke = "#7AA20D" stroke-width = "3.000000" /> 
<line x1="30.000000" y1 = "128.703570" x2="1030.000000" y2="128.703570" stroke = "#7AA20D" stroke-width = "3.000000" /> 
<line x1="30.000000" y1 = "154.966049" x2="1030.000000" y2="154.966049" stroke = "#7AA20D" stroke-width = "3.000000" /> 
<line x1="30.000000" y1 = "171.337294" x2="1030.000000" y2="171.337294" stroke = "#7AA20D" stroke-width = "3.000000" /> 
<line x1="30.000000" y1 = "185.272296" x2="1030.000000" y2="185.272296" stroke = "#7AA20D" stroke-width = "3.000000" /> 
<line x1="30.000000" y1 = "201.723286" x2="1030.000000" y2="201.723286" stroke = "#7AA20D" stroke-width = "3.000000" /> 
<line x1="30.000000" y1 = "211.537389" x2="1030.000000" y2="211.537389" stroke = "#7AA20D" stroke-width = "3.000000" /> 
<line x1="30.000000" y1 = "219.744358" x2="1030.000000" y2="219.744358" stroke = "#7AA20D" stroke-width = "3.000000" /> 
<line x1="30.000000" y1 = "227.684445" x2="1030.000000" y2="227.684445" stroke = "#7AA20D" stroke-width = "3.000000" /> 
<line x1="30.000000" y1 = "239.024892" x2="1030.000000" y2="239.024892" stroke = "#7AA20D" stroke-width = "3.000000" /> 
<line x1="30.000000" y1 = "245.016026" x2="1030.000000" y2="245.016026" stroke = "#7AA20D" stroke-width = "3.000000" /> 
<line x1="30.000000" y1 = "246.948221" x2="1030.000000" y2="246.948221" stroke = "#7AA20D" stroke-width = "3.000000" /> 
<line x1="30.000000" y1 = "252.068481" x2="1030.000000" y2="252.068481" stroke = "#7AA20D" stroke-width = "3.000000" /> 
<line x1="30.000000" y1 = "258.147577" x2="1030.000000" y2="258.147577" stroke = "#7AA20D" stroke-width = "3.000000" /> 
<line x1="30.000000" y1 = "260.929552" x2="1030.000000" y2="260.929552" stroke = "#7AA20D" stroke-width = "3.000000" /> 
<line x1="30.000000" y1 = "263.688783" x2="1030.000000" y2="263.688783" stroke = "#7AA20D" stroke-width = "3.000000" /> 
<line x1="30.000000" y1 = "264.774040" x2="1030.000000" y2="264.774040" stroke = "#7AA20D" stroke-width = "3.000000" /> 
<line x1="30.000000" y1 = "265.105889" x2="1030.000000" y2="265.105889" stroke = "#7AA20D" stroke-width = "3.000000" /> 
<line x1="30.000000" y1 = "267.112086" x2="1030.000000" y2="267.112086" stroke = "#7AA20D" stroke-width = "3.000000" /> 
<line x1="30.000000" y1 = "272.809541" x2="1030.000000" y2="272.809541" stroke = "#7AA20D" stroke-width = "3.000000" /> 
<line x1="30.000000" y1 = "284.293635" x2="1030.000000" y2="284.293635" stroke = "#7AA20D" stroke-width = "3.000000" /> 
<line x1="30.000000" y1 = "296.977061" x2="1030.000000" y2="296.977061" stroke = "#7AA20D" stroke-width = "3.000000" /> 
<line x1="30.000000" y1 = "304.057306" x2="1030.000000" y2="304.057306" stroke = "#7AA20D" stroke-width = "3.000000" /> 
<line x1="30.000000" y1 = "313.795007" x2="1030.000000" y2="313.795007" stroke = "#7AA20D" stroke-width = "3.000000" /> 
<line x1="30.000000" y1 = "320.418734" x2="1030.000000" y2="320.418734" stroke = "#7AA20D" stroke-width = "3.000000" /> 
<line x1="30.000000" y1 = "328.425520" x2="1030.000000" y2="328.425520" stroke = "#7AA20D" stroke-width = "3.000000" /> 
<line x1="30.000000" y1 = "336.461960" x2="1030.000000" y2="336.461960" stroke = "#7AA20D" stroke-width = "3.000000" /> 
<line x1="30.000000" y1 = "352.590438" x2="1030.000000" y2="352.590438" stroke = "#7AA20D" stroke-width = "3.000000" /> 
<line x1="30.000000" y1 = "353.747304" x2="1030.000000" y2="353.747304" stroke = "#7AA20D" stroke-width = "3.000000" /> 
<line x1="30.000000" y1 = "370.638782" x2="1030.000000" y2="370.638782" stroke = "#7AA20D" stroke-width = "3.000000" /> 
<line x1="30.000000" y1 = "392.712799" x2="1030.000000" y2="392.712799" stroke = "#7AA20D" stroke-width = "3.000000" /> 
<line x1="30.000000" y1 = "403.699271" x2="1030.000000" y2="403.699271" stroke = "#7AA20D" stroke-width = "3.000000" /> 
<line x1="30.000000" y1 = "413.312417" x2="1030.000000" y2="413.312417" stroke = "#7AA20D" stroke-width = "3.000000" /> 
<line x1="30.000000" y1 = "427.111571" x2="1030.000000" y2="427.111571" stroke = "#7AA20D" stroke-width = "3.000000" /> 
<line x1="30.000000" y1 = "437.996750" x2="1030.000000" y2="437.996750" stroke = "#7AA20D" stroke-width = "3.000000" /> 
<line x1="30.000000" y1 = "452.443747" x2="1030.000000" y2="452.443747" stroke = "#7AA20D" stroke-width = "3.000000" /> 
<line x1="30.000000" y1 = "472.154495" x2="1030.000000" y2="472.154495" stroke = "#7AA20D" stroke-width = "3.000000" /> 
<line x1="30.000000" y1 = "483.675007" x2="1030.000000" y2="483.675007" stroke = "#7AA20D" stroke-width = "3.000000" /> 
<line x1="30.000000" y1 = "496.626877" x2="1030.000000" y2="496.626877" stroke = "#7AA20D" stroke-width = "3.000000" /> 
<line x1="30.000000" y1 = "506.486364" x2="1030.000000" y2="506.486364" stroke = "#7AA20D" stroke-width = "3.000000" /> 
<line x1="30.000000" y1 = "513.492767" x2="1030.000000" y2="513.492767" stroke = "#7AA20D" stroke-width = "3.000000" /> 
<line x1="30.000000" y1 = "522.602248" x2="1030.000000" y2="522.602248" stroke = "#7AA20D" stroke-width = "3.000000" /> 
<line x1="30.000000" y1 = "543.029127" x2="1030.000000" y2="543.029127" stroke = "#7AA20D" stroke-width = "3.000000" /> 
<line x1="30.000000" y1 = "559.678481" x2="1030.000000" y2="559.678481" stroke = "#7AA20D" stroke-width = "3.000000" /> 
<line x1="30.000000" y1 = "581.798471" x2="1030.000000" y2="581.798471" stroke = "#7AA20D" stroke-width = "3.000000" /> 
<line x1="30.000000" y1 = "601.639871" x2="1030.000000" y2="601.639871" stroke = "#7AA20D" stroke-width = "3.000000" /> 
<line x1="30.000000" y1 = "620.961959" x2="1030.000000" y2="620.961959" stroke = "#7AA20D" stroke-width = "3.000000" /> 
<line x1="30.000000" y1 = "640.797353" x2="1030.000000" y2="640.797353" stroke = "#7AA20D" stroke-width = "3.000000" /> 
<line x1="30.000000" y1 = "653.444522" x2="1030.000000" y2="653.444522" stroke = "#7AA20D" stroke-width = "3.000000" /> 
<line x1="30.000000" y1 = "667.504528" x2="1030.000000" y2="667.504528" stroke = "#7AA20D" stroke-width = "3.000000" /> 
<line x1="30.000000" y1 = "686.557430" x2="1030.000000" y2="686.557430" stroke = "#7AA20D" stroke-width = "3.000000" /> 
<line x1="30.000000" y1 = "697.157763" x2="1030.000000" y2="697.157763" stroke = "#7AA20D" stroke-width = "3.000000" /> 
<line x1="30.000000" y1 = "706.312477" x2="1030.000000" y2="706.312477" stroke = "#7AA20D" stroke-width = "3.000000" /> 
<line x1="30.000000" y1 = "712.932333" x2="1030.000000" y2="712.932333" stroke = "#7AA20D" stroke-width = "3.000000" /> 
<line x1="30.000000" y1 = "721.963434" x2="1030.000000" y2="721.963434" stroke = "#7AA20D" stroke-width = "3.000000" /> 
<line x1="30.000000" y1 = "730.183147" x2="1030.000000" y2="730.183147" stroke = "#7AA20D" stroke-width = "3.000000" /> 
<line x1="30.000000" y1 = "740.011612" x2="1030.000000" y2="740.011612" stroke = "#7AA20D" stroke-width = "3.000000" /> 
<line x1="30.000000" y1 = "755.080913" x2="1030.000000" y2="755.080913" stroke = "#7AA20D" stroke-width = "3.000000" /> 
<line x1="30.000000" y1 = "773.077728" x2="1030.000000" y2="773.077728" stroke = "#7AA20D" stroke-width = "3.000000" /> 
<line x1="30.000000" y1 = "794.182411" x2="1030.000000" y2="794.182411" stroke = "#7AA20D" stroke-width = "3.000000" /> 
<line x1="30.000000" y1 = "809.970518" x2="1030.000000" y2="809.970518" stroke = "#7AA20D" stroke-width = "3.000000" /> 
<line x1="30.000000" y1 = "818.554950" x2="1030.000000" y2="818.554950" stroke = "#7AA20D" stroke-width = "3.000000" /> 
<line x1="30.000000" y1 = "826.040765" x2="1030.000000" y2="826.040765" stroke = "#7AA20D" stroke-width = "3.000000" /> 
<line x1="30.000000" y1 = "837.508962" x2="1030.000000" y2="837.508962" stroke = "#7AA20D" stroke-width = "3.000000" /> 
<line x1="30.000000" y1 = "848.944748" x2="1030.000000" y2="848.944748" stroke = "#7AA20D" stroke-width = "3.000000" /> 
<line x1="30.000000" y1 = "863.290393" x2="1030.000000" y2="863.290393" stroke = "#7AA20D" stroke-width = "3.000000" /> 
<line x1="30.000000" y1 = "876.933862" x2="1030.000000" y2="876.933862" stroke = "#7AA20D" stroke-width = "3.000000" /> 
<line x1="30.000000" y1 = "901.908306" x2="1030.000000" y2="901.908306" stroke = "#7AA20D" stroke-width = "3.000000" /> 
<line x1="30.000000" y1 = "935.121871" x2="1030.000000" y2="935.121871" stroke = "#7AA20D" stroke-width = "3.000000" /> 
<line x1="30.000000" y1 = "958.054137" x2="1030.000000" y2="958.054137" stroke = "#7AA20D" stroke-width = "3.000000" /> 
<line x1="30.000000" y1 = "1030.000000" x2="1030.000000" y2="1030.000000" stroke = "#7AA20D" stroke-width = "3.000000" /> 
<line x1="30.000000" y1 = "1030.000000" x2="1030.000000" y2="1030.000000" stroke = "#7AA20D" stroke-width = "3.000000" /> 
<line x1="30.000000" y1 = "1030.000000" x2="1030.000000" y2="1030.000000" stroke = "#7AA20D" stroke-width = "3.000000" /> 
<line x1="30.000000" y1 = "1030.000000" x2="1030.000000" y2="1030.000000" stroke = "#7AA20D" stroke-width = "3.000000" /> 
</svg>
